<svg width="1200" height="391" viewBox="0 0 1200 391" fill="none" xmlns="http://www.w3.org/2000/svg">
<rect width="1200" height="391" rx="12" fill="#0A2640"/>
<mask id="mask0_779_512" style="mask-type:alpha" maskUnits="userSpaceOnUse" x="0" y="0" width="1200" height="391">
<rect width="1200" height="391" rx="12" fill="#0A2640"/>
</mask>
<g mask="url(#mask0_779_512)">
<circle cx="1112.5" cy="-407.5" r="646.5" fill="#1C3D5B"/>
</g>
<path d="M258.538 124L270.442 89.44H275.122L287.026 124H283.354L272.05 91.408H273.442L262.21 124H258.538ZM263.842 115.624V112.312H281.698V115.624H263.842ZM310.08 124V110.776C310.08 109.336 309.944 108.016 309.672 106.816C309.4 105.6 308.96 104.544 308.352 103.648C307.76 102.736 306.984 102.032 306.024 101.536C305.08 101.04 303.928 100.792 302.568 100.792C301.32 100.792 300.216 101.008 299.256 101.44C298.312 101.872 297.512 102.496 296.856 103.312C296.216 104.112 295.728 105.088 295.392 106.24C295.056 107.392 294.888 108.704 294.888 110.176L292.392 109.624C292.392 106.968 292.856 104.736 293.784 102.928C294.712 101.12 295.992 99.752 297.624 98.824C299.256 97.896 301.128 97.432 303.24 97.432C304.792 97.432 306.144 97.672 307.296 98.152C308.464 98.632 309.448 99.28 310.248 100.096C311.064 100.912 311.72 101.848 312.216 102.904C312.712 103.944 313.072 105.056 313.296 106.24C313.52 107.408 313.632 108.576 313.632 109.744V124H310.08ZM291.336 124V98.08H294.528V104.464H294.888V124H291.336ZM340.437 124.72C337.909 124.72 335.717 124.16 333.861 123.04C332.021 121.92 330.589 120.344 329.565 118.312C328.541 116.28 328.029 113.896 328.029 111.16C328.029 108.328 328.533 105.88 329.541 103.816C330.549 101.752 331.965 100.16 333.789 99.04C335.629 97.92 337.797 97.36 340.293 97.36C342.853 97.36 345.037 97.952 346.845 99.136C348.653 100.304 350.021 101.984 350.949 104.176C351.877 106.368 352.301 108.984 352.221 112.024H348.621V110.776C348.557 107.416 347.829 104.88 346.437 103.168C345.061 101.456 343.045 100.6 340.389 100.6C337.605 100.6 335.469 101.504 333.981 103.312C332.509 105.12 331.773 107.696 331.773 111.04C331.773 114.304 332.509 116.84 333.981 118.648C335.469 120.44 337.573 121.336 340.293 121.336C342.149 121.336 343.765 120.912 345.141 120.064C346.533 119.2 347.629 117.96 348.429 116.344L351.717 117.616C350.693 119.872 349.181 121.624 347.181 122.872C345.197 124.104 342.949 124.72 340.437 124.72ZM330.525 112.024V109.072H350.325V112.024H330.525ZM375.564 124V110.776C375.564 109.336 375.428 108.016 375.156 106.816C374.884 105.6 374.444 104.544 373.836 103.648C373.244 102.736 372.468 102.032 371.508 101.536C370.564 101.04 369.412 100.792 368.052 100.792C366.804 100.792 365.7 101.008 364.74 101.44C363.796 101.872 362.996 102.496 362.34 103.312C361.7 104.112 361.212 105.088 360.876 106.24C360.54 107.392 360.372 108.704 360.372 110.176L357.876 109.624C357.876 106.968 358.34 104.736 359.268 102.928C360.196 101.12 361.476 99.752 363.108 98.824C364.74 97.896 366.612 97.432 368.724 97.432C370.276 97.432 371.628 97.672 372.78 98.152C373.948 98.632 374.932 99.28 375.732 100.096C376.548 100.912 377.204 101.848 377.7 102.904C378.196 103.944 378.556 105.056 378.78 106.24C379.004 107.408 379.116 108.576 379.116 109.744V124H375.564ZM356.82 124V98.08H360.012V104.464H360.372V124H356.82ZM399.456 124C398 124.304 396.56 124.424 395.136 124.36C393.728 124.296 392.464 123.992 391.344 123.448C390.24 122.904 389.4 122.056 388.824 120.904C388.36 119.944 388.104 118.976 388.056 118C388.024 117.008 388.008 115.88 388.008 114.616V90.88H391.512V114.472C391.512 115.56 391.52 116.472 391.536 117.208C391.568 117.928 391.736 118.568 392.04 119.128C392.616 120.2 393.528 120.84 394.776 121.048C396.04 121.256 397.6 121.208 399.456 120.904V124ZM382.464 101.104V98.08H399.456V101.104H382.464ZM414.594 124.72C412.066 124.72 409.874 124.16 408.018 123.04C406.178 121.92 404.746 120.344 403.722 118.312C402.698 116.28 402.186 113.896 402.186 111.16C402.186 108.328 402.69 105.88 403.698 103.816C404.706 101.752 406.122 100.16 407.946 99.04C409.786 97.92 411.954 97.36 414.45 97.36C417.01 97.36 419.194 97.952 421.002 99.136C422.81 100.304 424.178 101.984 425.106 104.176C426.034 106.368 426.458 108.984 426.378 112.024H422.778V110.776C422.714 107.416 421.986 104.88 420.594 103.168C419.218 101.456 417.202 100.6 414.546 100.6C411.762 100.6 409.626 101.504 408.138 103.312C406.666 105.12 405.93 107.696 405.93 111.04C405.93 114.304 406.666 116.84 408.138 118.648C409.626 120.44 411.73 121.336 414.45 121.336C416.306 121.336 417.922 120.912 419.298 120.064C420.69 119.2 421.786 117.96 422.586 116.344L425.874 117.616C424.85 119.872 423.338 121.624 421.338 122.872C419.354 124.104 417.106 124.72 414.594 124.72ZM404.682 112.024V109.072H424.482V112.024H404.682ZM431.704 124V98.08H434.872V104.32L434.248 103.504C434.536 102.736 434.912 102.032 435.376 101.392C435.84 100.736 436.344 100.2 436.888 99.784C437.56 99.192 438.344 98.744 439.24 98.44C440.136 98.12 441.04 97.936 441.952 97.888C442.864 97.824 443.696 97.888 444.448 98.08V101.392C443.504 101.152 442.472 101.096 441.352 101.224C440.232 101.352 439.2 101.8 438.256 102.568C437.392 103.24 436.744 104.048 436.312 104.992C435.88 105.92 435.592 106.912 435.448 107.968C435.304 109.008 435.232 110.04 435.232 111.064V124H431.704ZM460.641 124.72C458.257 124.72 456.241 124.12 454.593 122.92C452.945 121.704 451.697 120.064 450.849 118C450.001 115.92 449.577 113.592 449.577 111.016C449.577 108.392 450.001 106.056 450.849 104.008C451.713 101.944 452.977 100.32 454.641 99.136C456.305 97.952 458.353 97.36 460.785 97.36C463.153 97.36 465.185 97.96 466.881 99.16C468.577 100.36 469.873 101.992 470.769 104.056C471.681 106.12 472.137 108.44 472.137 111.016C472.137 113.608 471.681 115.936 470.769 118C469.857 120.064 468.545 121.704 466.833 122.92C465.121 124.12 463.057 124.72 460.641 124.72ZM448.977 135.52V98.08H452.145V117.592H452.529V135.52H448.977ZM460.281 121.432C462.089 121.432 463.593 120.976 464.793 120.064C465.993 119.152 466.889 117.912 467.481 116.344C468.089 114.76 468.393 112.984 468.393 111.016C468.393 109.064 468.097 107.304 467.505 105.736C466.913 104.168 466.009 102.928 464.793 102.016C463.593 101.104 462.065 100.648 460.209 100.648C458.401 100.648 456.897 101.088 455.697 101.968C454.513 102.848 453.625 104.072 453.033 105.64C452.441 107.192 452.145 108.984 452.145 111.016C452.145 113.016 452.441 114.808 453.033 116.392C453.625 117.96 454.521 119.192 455.721 120.088C456.921 120.984 458.441 121.432 460.281 121.432ZM477.407 124V98.08H480.575V104.32L479.951 103.504C480.239 102.736 480.615 102.032 481.079 101.392C481.543 100.736 482.047 100.2 482.591 99.784C483.263 99.192 484.047 98.744 484.943 98.44C485.839 98.12 486.743 97.936 487.655 97.888C488.567 97.824 489.399 97.888 490.151 98.08V101.392C489.207 101.152 488.175 101.096 487.055 101.224C485.935 101.352 484.903 101.8 483.959 102.568C483.095 103.24 482.447 104.048 482.015 104.992C481.583 105.92 481.295 106.912 481.151 107.968C481.007 109.008 480.935 110.04 480.935 111.064V124H477.407ZM495.184 93.16V89.2H498.712V93.16H495.184ZM495.184 124V98.08H498.712V124H495.184ZM515.579 124.696C512.539 124.696 510.035 124.04 508.067 122.728C506.115 121.416 504.915 119.592 504.467 117.256L508.067 116.656C508.451 118.128 509.323 119.304 510.683 120.184C512.059 121.048 513.755 121.48 515.771 121.48C517.739 121.48 519.291 121.072 520.427 120.256C521.563 119.424 522.131 118.296 522.131 116.872C522.131 116.072 521.947 115.424 521.579 114.928C521.227 114.416 520.499 113.944 519.395 113.512C518.291 113.08 516.643 112.568 514.451 111.976C512.099 111.336 510.259 110.696 508.931 110.056C507.603 109.416 506.659 108.68 506.099 107.848C505.539 107 505.259 105.968 505.259 104.752C505.259 103.28 505.675 101.992 506.507 100.888C507.339 99.768 508.491 98.904 509.963 98.296C511.435 97.672 513.147 97.36 515.099 97.36C517.051 97.36 518.795 97.68 520.331 98.32C521.883 98.944 523.131 99.824 524.075 100.96C525.019 102.096 525.579 103.416 525.755 104.92L522.155 105.568C521.915 104.048 521.155 102.848 519.875 101.968C518.611 101.072 517.003 100.608 515.051 100.576C513.211 100.528 511.715 100.88 510.563 101.632C509.411 102.368 508.835 103.352 508.835 104.584C508.835 105.272 509.043 105.864 509.459 106.36C509.875 106.84 510.627 107.296 511.715 107.728C512.819 108.16 514.387 108.632 516.419 109.144C518.803 109.752 520.675 110.392 522.035 111.064C523.395 111.736 524.363 112.528 524.939 113.44C525.515 114.352 525.803 115.48 525.803 116.824C525.803 119.272 524.891 121.2 523.067 122.608C521.259 124 518.763 124.696 515.579 124.696ZM542.094 124.72C539.566 124.72 537.374 124.16 535.518 123.04C533.678 121.92 532.246 120.344 531.222 118.312C530.198 116.28 529.686 113.896 529.686 111.16C529.686 108.328 530.19 105.88 531.198 103.816C532.206 101.752 533.622 100.16 535.446 99.04C537.286 97.92 539.454 97.36 541.95 97.36C544.51 97.36 546.694 97.952 548.502 99.136C550.31 100.304 551.678 101.984 552.606 104.176C553.534 106.368 553.958 108.984 553.878 112.024H550.278V110.776C550.214 107.416 549.486 104.88 548.094 103.168C546.718 101.456 544.702 100.6 542.046 100.6C539.262 100.6 537.126 101.504 535.638 103.312C534.166 105.12 533.43 107.696 533.43 111.04C533.43 114.304 534.166 116.84 535.638 118.648C537.126 120.44 539.23 121.336 541.95 121.336C543.806 121.336 545.422 120.912 546.798 120.064C548.19 119.2 549.286 117.96 550.086 116.344L553.374 117.616C552.35 119.872 550.838 121.624 548.838 122.872C546.854 124.104 544.606 124.72 542.094 124.72ZM532.182 112.024V109.072H551.982V112.024H532.182ZM582.925 124C581.469 124.304 580.029 124.424 578.605 124.36C577.197 124.296 575.933 123.992 574.813 123.448C573.709 122.904 572.869 122.056 572.293 120.904C571.829 119.944 571.573 118.976 571.525 118C571.493 117.008 571.477 115.88 571.477 114.616V90.88H574.981V114.472C574.981 115.56 574.989 116.472 575.005 117.208C575.037 117.928 575.205 118.568 575.509 119.128C576.085 120.2 576.997 120.84 578.245 121.048C579.509 121.256 581.069 121.208 582.925 120.904V124ZM565.933 101.104V98.08H582.925V101.104H565.933ZM598.062 124.72C595.534 124.72 593.342 124.16 591.486 123.04C589.646 121.92 588.214 120.344 587.19 118.312C586.166 116.28 585.654 113.896 585.654 111.16C585.654 108.328 586.158 105.88 587.166 103.816C588.174 101.752 589.59 100.16 591.414 99.04C593.254 97.92 595.422 97.36 597.918 97.36C600.478 97.36 602.662 97.952 604.47 99.136C606.278 100.304 607.646 101.984 608.574 104.176C609.502 106.368 609.926 108.984 609.846 112.024H606.246V110.776C606.182 107.416 605.454 104.88 604.062 103.168C602.686 101.456 600.67 100.6 598.014 100.6C595.23 100.6 593.094 101.504 591.606 103.312C590.134 105.12 589.398 107.696 589.398 111.04C589.398 114.304 590.134 116.84 591.606 118.648C593.094 120.44 595.198 121.336 597.918 121.336C599.774 121.336 601.39 120.912 602.766 120.064C604.158 119.2 605.254 117.96 606.054 116.344L609.342 117.616C608.318 119.872 606.806 121.624 604.806 122.872C602.822 124.104 600.574 124.72 598.062 124.72ZM588.15 112.024V109.072H607.95V112.024H588.15ZM645.381 124L645.405 106.984C645.405 104.984 644.845 103.416 643.725 102.28C642.621 101.128 641.213 100.552 639.501 100.552C638.525 100.552 637.573 100.776 636.645 101.224C635.717 101.672 634.949 102.392 634.341 103.384C633.749 104.376 633.453 105.672 633.453 107.272L631.365 106.672C631.317 104.816 631.677 103.192 632.445 101.8C633.229 100.408 634.301 99.328 635.661 98.56C637.037 97.776 638.589 97.384 640.317 97.384C642.925 97.384 645.013 98.192 646.581 99.808C648.149 101.408 648.933 103.576 648.933 106.312L648.909 124H645.381ZM614.445 124V98.08H617.613V104.464H617.997V124H614.445ZM629.949 124L629.973 107.224C629.973 105.16 629.421 103.536 628.317 102.352C627.229 101.152 625.789 100.552 623.997 100.552C622.205 100.552 620.757 101.168 619.653 102.4C618.549 103.616 617.997 105.24 617.997 107.272L615.885 106.12C615.885 104.456 616.277 102.968 617.061 101.656C617.845 100.328 618.917 99.288 620.277 98.536C621.637 97.768 623.181 97.384 624.909 97.384C626.557 97.384 628.021 97.736 629.301 98.44C630.597 99.144 631.613 100.168 632.349 101.512C633.085 102.856 633.453 104.488 633.453 106.408L633.429 124H629.949ZM666.797 124.72C664.413 124.72 662.397 124.12 660.749 122.92C659.101 121.704 657.853 120.064 657.005 118C656.157 115.92 655.733 113.592 655.733 111.016C655.733 108.392 656.157 106.056 657.005 104.008C657.869 101.944 659.133 100.32 660.797 99.136C662.461 97.952 664.509 97.36 666.941 97.36C669.309 97.36 671.341 97.96 673.037 99.16C674.733 100.36 676.029 101.992 676.925 104.056C677.837 106.12 678.293 108.44 678.293 111.016C678.293 113.608 677.837 115.936 676.925 118C676.013 120.064 674.701 121.704 672.989 122.92C671.277 124.12 669.213 124.72 666.797 124.72ZM655.133 135.52V98.08H658.301V117.592H658.685V135.52H655.133ZM666.437 121.432C668.245 121.432 669.749 120.976 670.949 120.064C672.149 119.152 673.045 117.912 673.637 116.344C674.245 114.76 674.549 112.984 674.549 111.016C674.549 109.064 674.253 107.304 673.661 105.736C673.069 104.168 672.165 102.928 670.949 102.016C669.749 101.104 668.221 100.648 666.365 100.648C664.557 100.648 663.053 101.088 661.853 101.968C660.669 102.848 659.781 104.072 659.189 105.64C658.597 107.192 658.301 108.984 658.301 111.016C658.301 113.016 658.597 114.808 659.189 116.392C659.781 117.96 660.677 119.192 661.877 120.088C663.077 120.984 664.597 121.432 666.437 121.432ZM684.043 124V88.72H687.571V124H684.043ZM702.182 124.72C700.23 124.72 698.59 124.368 697.262 123.664C695.95 122.96 694.966 122.024 694.31 120.856C693.654 119.688 693.326 118.416 693.326 117.04C693.326 115.632 693.606 114.432 694.166 113.44C694.742 112.432 695.518 111.608 696.494 110.968C697.486 110.328 698.63 109.84 699.926 109.504C701.238 109.184 702.686 108.904 704.27 108.664C705.87 108.408 707.43 108.192 708.95 108.016C710.486 107.824 711.83 107.64 712.982 107.464L711.734 108.232C711.782 105.672 711.286 103.776 710.246 102.544C709.206 101.312 707.398 100.696 704.822 100.696C703.046 100.696 701.542 101.096 700.31 101.896C699.094 102.696 698.238 103.96 697.742 105.688L694.31 104.68C694.902 102.36 696.094 100.56 697.886 99.28C699.678 98 702.006 97.36 704.87 97.36C707.238 97.36 709.246 97.808 710.894 98.704C712.558 99.584 713.734 100.864 714.422 102.544C714.742 103.296 714.95 104.136 715.046 105.064C715.142 105.992 715.19 106.936 715.19 107.896V124H712.046V117.496L712.958 117.88C712.078 120.104 710.71 121.8 708.854 122.968C706.998 124.136 704.774 124.72 702.182 124.72ZM702.59 121.672C704.238 121.672 705.678 121.376 706.91 120.784C708.142 120.192 709.134 119.384 709.886 118.36C710.638 117.32 711.126 116.152 711.35 114.856C711.542 114.024 711.646 113.112 711.662 112.12C711.678 111.112 711.686 110.36 711.686 109.864L713.03 110.56C711.83 110.72 710.526 110.88 709.118 111.04C707.726 111.2 706.35 111.384 704.99 111.592C703.646 111.8 702.43 112.048 701.342 112.336C700.606 112.544 699.894 112.84 699.206 113.224C698.518 113.592 697.95 114.088 697.502 114.712C697.07 115.336 696.854 116.112 696.854 117.04C696.854 117.792 697.038 118.52 697.406 119.224C697.79 119.928 698.398 120.512 699.23 120.976C700.078 121.44 701.198 121.672 702.59 121.672ZM735.55 124C734.094 124.304 732.654 124.424 731.23 124.36C729.822 124.296 728.558 123.992 727.438 123.448C726.334 122.904 725.494 122.056 724.918 120.904C724.454 119.944 724.198 118.976 724.15 118C724.118 117.008 724.102 115.88 724.102 114.616V90.88H727.606V114.472C727.606 115.56 727.614 116.472 727.63 117.208C727.662 117.928 727.83 118.568 728.134 119.128C728.71 120.2 729.622 120.84 730.87 121.048C732.134 121.256 733.694 121.208 735.55 120.904V124ZM718.558 101.104V98.08H735.55V101.104H718.558ZM750.687 124.72C748.159 124.72 745.967 124.16 744.111 123.04C742.271 121.92 740.839 120.344 739.815 118.312C738.791 116.28 738.279 113.896 738.279 111.16C738.279 108.328 738.783 105.88 739.791 103.816C740.799 101.752 742.215 100.16 744.039 99.04C745.879 97.92 748.047 97.36 750.543 97.36C753.103 97.36 755.287 97.952 757.095 99.136C758.903 100.304 760.271 101.984 761.199 104.176C762.127 106.368 762.551 108.984 762.471 112.024H758.871V110.776C758.807 107.416 758.079 104.88 756.687 103.168C755.311 101.456 753.295 100.6 750.639 100.6C747.855 100.6 745.719 101.504 744.231 103.312C742.759 105.12 742.023 107.696 742.023 111.04C742.023 114.304 742.759 116.84 744.231 118.648C745.719 120.44 747.823 121.336 750.543 121.336C752.399 121.336 754.015 120.912 755.391 120.064C756.783 119.2 757.879 117.96 758.679 116.344L761.967 117.616C760.943 119.872 759.431 121.624 757.431 122.872C755.447 124.104 753.199 124.72 750.687 124.72ZM740.775 112.024V109.072H760.575V112.024H740.775ZM791.519 124C790.063 124.304 788.623 124.424 787.199 124.36C785.791 124.296 784.527 123.992 783.407 123.448C782.303 122.904 781.463 122.056 780.887 120.904C780.423 119.944 780.167 118.976 780.119 118C780.087 117.008 780.071 115.88 780.071 114.616V90.88H783.575V114.472C783.575 115.56 783.583 116.472 783.599 117.208C783.631 117.928 783.799 118.568 784.103 119.128C784.679 120.2 785.591 120.84 786.839 121.048C788.103 121.256 789.663 121.208 791.519 120.904V124ZM774.527 101.104V98.08H791.519V101.104H774.527ZM806.512 124.72C803.936 124.72 801.736 124.136 799.912 122.968C798.088 121.8 796.688 120.184 795.712 118.12C794.736 116.056 794.248 113.688 794.248 111.016C794.248 108.296 794.744 105.912 795.736 103.864C796.728 101.816 798.136 100.224 799.96 99.088C801.8 97.936 803.984 97.36 806.512 97.36C809.104 97.36 811.312 97.944 813.136 99.112C814.976 100.264 816.376 101.872 817.336 103.936C818.312 105.984 818.8 108.344 818.8 111.016C818.8 113.736 818.312 116.128 817.336 118.192C816.36 120.24 814.952 121.84 813.112 122.992C811.272 124.144 809.072 124.72 806.512 124.72ZM806.512 121.336C809.392 121.336 811.536 120.384 812.944 118.48C814.352 116.56 815.056 114.072 815.056 111.016C815.056 107.88 814.344 105.384 812.92 103.528C811.512 101.672 809.376 100.744 806.512 100.744C804.576 100.744 802.976 101.184 801.712 102.064C800.464 102.928 799.528 104.136 798.904 105.688C798.296 107.224 797.992 109 797.992 111.016C797.992 114.136 798.712 116.64 800.152 118.528C801.592 120.4 803.712 121.336 806.512 121.336ZM833.704 124V98.08H836.872V104.32L836.248 103.504C836.536 102.736 836.912 102.032 837.376 101.392C837.84 100.736 838.344 100.2 838.888 99.784C839.56 99.192 840.344 98.744 841.24 98.44C842.136 98.12 843.04 97.936 843.952 97.888C844.864 97.824 845.696 97.888 846.448 98.08V101.392C845.504 101.152 844.472 101.096 843.352 101.224C842.232 101.352 841.2 101.8 840.256 102.568C839.392 103.24 838.744 104.048 838.312 104.992C837.88 105.92 837.592 106.912 837.448 107.968C837.304 109.008 837.232 110.04 837.232 111.064V124H833.704ZM857.432 124.72C855.48 124.72 853.84 124.368 852.512 123.664C851.2 122.96 850.216 122.024 849.56 120.856C848.904 119.688 848.576 118.416 848.576 117.04C848.576 115.632 848.856 114.432 849.416 113.44C849.992 112.432 850.768 111.608 851.744 110.968C852.736 110.328 853.88 109.84 855.176 109.504C856.488 109.184 857.936 108.904 859.52 108.664C861.12 108.408 862.68 108.192 864.2 108.016C865.736 107.824 867.08 107.64 868.232 107.464L866.984 108.232C867.032 105.672 866.536 103.776 865.496 102.544C864.456 101.312 862.648 100.696 860.072 100.696C858.296 100.696 856.792 101.096 855.56 101.896C854.344 102.696 853.488 103.96 852.992 105.688L849.56 104.68C850.152 102.36 851.344 100.56 853.136 99.28C854.928 98 857.256 97.36 860.12 97.36C862.488 97.36 864.496 97.808 866.144 98.704C867.808 99.584 868.984 100.864 869.672 102.544C869.992 103.296 870.2 104.136 870.296 105.064C870.392 105.992 870.44 106.936 870.44 107.896V124H867.296V117.496L868.208 117.88C867.328 120.104 865.96 121.8 864.104 122.968C862.248 124.136 860.024 124.72 857.432 124.72ZM857.84 121.672C859.488 121.672 860.928 121.376 862.16 120.784C863.392 120.192 864.384 119.384 865.136 118.36C865.888 117.32 866.376 116.152 866.6 114.856C866.792 114.024 866.896 113.112 866.912 112.12C866.928 111.112 866.936 110.36 866.936 109.864L868.28 110.56C867.08 110.72 865.776 110.88 864.368 111.04C862.976 111.2 861.6 111.384 860.24 111.592C858.896 111.8 857.68 112.048 856.592 112.336C855.856 112.544 855.144 112.84 854.456 113.224C853.768 113.592 853.2 114.088 852.752 114.712C852.32 115.336 852.104 116.112 852.104 117.04C852.104 117.792 852.288 118.52 852.656 119.224C853.04 119.928 853.648 120.512 854.48 120.976C855.328 121.44 856.448 121.672 857.84 121.672ZM907.6 124L907.624 106.984C907.624 104.984 907.064 103.416 905.944 102.28C904.84 101.128 903.432 100.552 901.72 100.552C900.744 100.552 899.792 100.776 898.864 101.224C897.936 101.672 897.168 102.392 896.56 103.384C895.968 104.376 895.672 105.672 895.672 107.272L893.584 106.672C893.536 104.816 893.896 103.192 894.664 101.8C895.448 100.408 896.52 99.328 897.88 98.56C899.256 97.776 900.808 97.384 902.536 97.384C905.144 97.384 907.232 98.192 908.8 99.808C910.368 101.408 911.152 103.576 911.152 106.312L911.128 124H907.6ZM876.664 124V98.08H879.832V104.464H880.216V124H876.664ZM892.168 124L892.192 107.224C892.192 105.16 891.64 103.536 890.536 102.352C889.448 101.152 888.008 100.552 886.216 100.552C884.424 100.552 882.976 101.168 881.872 102.4C880.768 103.616 880.216 105.24 880.216 107.272L878.104 106.12C878.104 104.456 878.496 102.968 879.28 101.656C880.064 100.328 881.136 99.288 882.496 98.536C883.856 97.768 885.4 97.384 887.128 97.384C888.776 97.384 890.24 97.736 891.52 98.44C892.816 99.144 893.832 100.168 894.568 101.512C895.304 102.856 895.672 104.488 895.672 106.408L895.648 124H892.168ZM929.016 124.72C926.632 124.72 924.616 124.12 922.968 122.92C921.32 121.704 920.072 120.064 919.224 118C918.376 115.92 917.952 113.592 917.952 111.016C917.952 108.392 918.376 106.056 919.224 104.008C920.088 101.944 921.352 100.32 923.016 99.136C924.68 97.952 926.728 97.36 929.16 97.36C931.528 97.36 933.56 97.96 935.256 99.16C936.952 100.36 938.248 101.992 939.144 104.056C940.056 106.12 940.512 108.44 940.512 111.016C940.512 113.608 940.056 115.936 939.144 118C938.232 120.064 936.92 121.704 935.208 122.92C933.496 124.12 931.432 124.72 929.016 124.72ZM917.352 135.52V98.08H920.52V117.592H920.904V135.52H917.352ZM928.656 121.432C930.464 121.432 931.968 120.976 933.168 120.064C934.368 119.152 935.264 117.912 935.856 116.344C936.464 114.76 936.768 112.984 936.768 111.016C936.768 109.064 936.472 107.304 935.88 105.736C935.288 104.168 934.384 102.928 933.168 102.016C931.968 101.104 930.44 100.648 928.584 100.648C926.776 100.648 925.272 101.088 924.072 101.968C922.888 102.848 922 104.072 921.408 105.64C920.816 107.192 920.52 108.984 920.52 111.016C920.52 113.016 920.816 114.808 921.408 116.392C922 117.96 922.896 119.192 924.096 120.088C925.296 120.984 926.816 121.432 928.656 121.432ZM332.186 196.648C330.634 196.648 329.274 196.408 328.106 195.928C326.954 195.448 325.97 194.8 325.154 193.984C324.354 193.168 323.706 192.24 323.21 191.2C322.714 190.144 322.354 189.032 322.13 187.864C321.906 186.68 321.794 185.504 321.794 184.336V170.08H325.346V183.304C325.346 184.728 325.482 186.048 325.754 187.264C326.026 188.48 326.458 189.544 327.05 190.456C327.658 191.352 328.434 192.048 329.378 192.544C330.338 193.04 331.498 193.288 332.858 193.288C334.106 193.288 335.202 193.072 336.146 192.64C337.106 192.208 337.906 191.592 338.546 190.792C339.202 189.976 339.698 188.992 340.034 187.84C340.37 186.672 340.538 185.36 340.538 183.904L343.034 184.456C343.034 187.112 342.57 189.344 341.642 191.152C340.714 192.96 339.434 194.328 337.802 195.256C336.17 196.184 334.298 196.648 332.186 196.648ZM340.898 196V189.616H340.538V170.08H344.066V196H340.898ZM362.414 196.72C360.03 196.72 358.014 196.12 356.366 194.92C354.718 193.704 353.47 192.064 352.622 190C351.774 187.92 351.35 185.592 351.35 183.016C351.35 180.392 351.774 178.056 352.622 176.008C353.486 173.944 354.75 172.32 356.414 171.136C358.078 169.952 360.126 169.36 362.558 169.36C364.926 169.36 366.958 169.96 368.654 171.16C370.35 172.36 371.646 173.992 372.542 176.056C373.454 178.12 373.91 180.44 373.91 183.016C373.91 185.608 373.454 187.936 372.542 190C371.63 192.064 370.318 193.704 368.606 194.92C366.894 196.12 364.83 196.72 362.414 196.72ZM350.75 207.52V170.08H353.918V189.592H354.302V207.52H350.75ZM362.054 193.432C363.862 193.432 365.366 192.976 366.566 192.064C367.766 191.152 368.662 189.912 369.254 188.344C369.862 186.76 370.166 184.984 370.166 183.016C370.166 181.064 369.87 179.304 369.278 177.736C368.686 176.168 367.782 174.928 366.566 174.016C365.366 173.104 363.838 172.648 361.982 172.648C360.174 172.648 358.67 173.088 357.47 173.968C356.286 174.848 355.398 176.072 354.806 177.64C354.214 179.192 353.918 180.984 353.918 183.016C353.918 185.016 354.214 186.808 354.806 188.392C355.398 189.96 356.294 191.192 357.494 192.088C358.694 192.984 360.214 193.432 362.054 193.432ZM392.486 207.52L397.502 193.912L397.574 197.944L386.222 170.08H389.966L399.278 193.384H397.742L406.334 170.08H409.934L396.014 207.52H392.486ZM423.989 196.72C421.413 196.72 419.213 196.136 417.389 194.968C415.565 193.8 414.165 192.184 413.189 190.12C412.213 188.056 411.725 185.688 411.725 183.016C411.725 180.296 412.221 177.912 413.213 175.864C414.205 173.816 415.613 172.224 417.437 171.088C419.277 169.936 421.461 169.36 423.989 169.36C426.581 169.36 428.789 169.944 430.613 171.112C432.453 172.264 433.853 173.872 434.813 175.936C435.789 177.984 436.277 180.344 436.277 183.016C436.277 185.736 435.789 188.128 434.813 190.192C433.837 192.24 432.429 193.84 430.589 194.992C428.749 196.144 426.549 196.72 423.989 196.72ZM423.989 193.336C426.869 193.336 429.013 192.384 430.421 190.48C431.829 188.56 432.533 186.072 432.533 183.016C432.533 179.88 431.821 177.384 430.397 175.528C428.989 173.672 426.853 172.744 423.989 172.744C422.053 172.744 420.453 173.184 419.189 174.064C417.941 174.928 417.005 176.136 416.381 177.688C415.773 179.224 415.469 181 415.469 183.016C415.469 186.136 416.189 188.64 417.629 190.528C419.069 192.4 421.189 193.336 423.989 193.336ZM451.483 196.648C449.931 196.648 448.571 196.408 447.403 195.928C446.251 195.448 445.267 194.8 444.451 193.984C443.651 193.168 443.003 192.24 442.507 191.2C442.011 190.144 441.651 189.032 441.427 187.864C441.203 186.68 441.091 185.504 441.091 184.336V170.08H444.643V183.304C444.643 184.728 444.779 186.048 445.051 187.264C445.323 188.48 445.755 189.544 446.347 190.456C446.955 191.352 447.731 192.048 448.675 192.544C449.635 193.04 450.795 193.288 452.155 193.288C453.403 193.288 454.499 193.072 455.443 192.64C456.403 192.208 457.203 191.592 457.843 190.792C458.499 189.976 458.995 188.992 459.331 187.84C459.667 186.672 459.835 185.36 459.835 183.904L462.331 184.456C462.331 187.112 461.867 189.344 460.939 191.152C460.011 192.96 458.731 194.328 457.099 195.256C455.467 196.184 453.595 196.648 451.483 196.648ZM460.195 196V189.616H459.835V170.08H463.363V196H460.195ZM470.071 196V170.08H473.239V176.32L472.615 175.504C472.903 174.736 473.279 174.032 473.743 173.392C474.207 172.736 474.711 172.2 475.255 171.784C475.927 171.192 476.711 170.744 477.607 170.44C478.503 170.12 479.407 169.936 480.319 169.888C481.231 169.824 482.063 169.888 482.815 170.08V173.392C481.871 173.152 480.839 173.096 479.719 173.224C478.599 173.352 477.567 173.8 476.623 174.568C475.759 175.24 475.111 176.048 474.679 176.992C474.247 177.92 473.959 178.912 473.815 179.968C473.671 181.008 473.599 182.04 473.599 183.064V196H470.071ZM507.729 196.72C505.121 196.72 502.913 196.136 501.105 194.968C499.297 193.8 497.921 192.192 496.977 190.144C496.049 188.08 495.569 185.712 495.537 183.04C495.569 180.32 496.065 177.936 497.025 175.888C497.985 173.824 499.369 172.224 501.177 171.088C502.985 169.936 505.177 169.36 507.753 169.36C510.377 169.36 512.657 170 514.593 171.28C516.545 172.56 517.881 174.312 518.601 176.536L515.145 177.64C514.537 176.088 513.569 174.888 512.241 174.04C510.929 173.176 509.425 172.744 507.729 172.744C505.825 172.744 504.249 173.184 503.001 174.064C501.753 174.928 500.825 176.136 500.217 177.688C499.609 179.24 499.297 181.024 499.281 183.04C499.313 186.144 500.033 188.64 501.441 190.528C502.849 192.4 504.945 193.336 507.729 193.336C509.489 193.336 510.985 192.936 512.217 192.136C513.465 191.32 514.409 190.136 515.049 188.584L518.601 189.64C517.641 191.944 516.233 193.704 514.377 194.92C512.521 196.12 510.305 196.72 507.729 196.72ZM533.676 196.72C531.1 196.72 528.9 196.136 527.076 194.968C525.252 193.8 523.852 192.184 522.876 190.12C521.9 188.056 521.412 185.688 521.412 183.016C521.412 180.296 521.908 177.912 522.9 175.864C523.892 173.816 525.3 172.224 527.124 171.088C528.964 169.936 531.148 169.36 533.676 169.36C536.268 169.36 538.476 169.944 540.3 171.112C542.14 172.264 543.54 173.872 544.5 175.936C545.476 177.984 545.964 180.344 545.964 183.016C545.964 185.736 545.476 188.128 544.5 190.192C543.524 192.24 542.116 193.84 540.276 194.992C538.436 196.144 536.236 196.72 533.676 196.72ZM533.676 193.336C536.556 193.336 538.7 192.384 540.108 190.48C541.516 188.56 542.22 186.072 542.22 183.016C542.22 179.88 541.508 177.384 540.084 175.528C538.676 173.672 536.54 172.744 533.676 172.744C531.74 172.744 530.14 173.184 528.876 174.064C527.628 174.928 526.692 176.136 526.068 177.688C525.46 179.224 525.156 181 525.156 183.016C525.156 186.136 525.876 188.64 527.316 190.528C528.756 192.4 530.876 193.336 533.676 193.336ZM582.17 196L582.194 178.984C582.194 176.984 581.634 175.416 580.514 174.28C579.41 173.128 578.002 172.552 576.29 172.552C575.314 172.552 574.362 172.776 573.434 173.224C572.506 173.672 571.738 174.392 571.13 175.384C570.538 176.376 570.242 177.672 570.242 179.272L568.154 178.672C568.106 176.816 568.466 175.192 569.234 173.8C570.018 172.408 571.09 171.328 572.45 170.56C573.826 169.776 575.378 169.384 577.106 169.384C579.714 169.384 581.802 170.192 583.37 171.808C584.938 173.408 585.722 175.576 585.722 178.312L585.698 196H582.17ZM551.234 196V170.08H554.402V176.464H554.786V196H551.234ZM566.738 196L566.762 179.224C566.762 177.16 566.21 175.536 565.106 174.352C564.018 173.152 562.578 172.552 560.786 172.552C558.994 172.552 557.546 173.168 556.442 174.4C555.338 175.616 554.786 177.24 554.786 179.272L552.674 178.12C552.674 176.456 553.066 174.968 553.85 173.656C554.634 172.328 555.706 171.288 557.066 170.536C558.426 169.768 559.97 169.384 561.698 169.384C563.346 169.384 564.81 169.736 566.09 170.44C567.386 171.144 568.402 172.168 569.138 173.512C569.874 174.856 570.242 176.488 570.242 178.408L570.218 196H566.738ZM603.586 196.72C601.202 196.72 599.186 196.12 597.538 194.92C595.89 193.704 594.642 192.064 593.794 190C592.946 187.92 592.522 185.592 592.522 183.016C592.522 180.392 592.946 178.056 593.794 176.008C594.658 173.944 595.922 172.32 597.586 171.136C599.25 169.952 601.298 169.36 603.73 169.36C606.098 169.36 608.13 169.96 609.826 171.16C611.522 172.36 612.818 173.992 613.714 176.056C614.626 178.12 615.082 180.44 615.082 183.016C615.082 185.608 614.626 187.936 613.714 190C612.802 192.064 611.49 193.704 609.778 194.92C608.066 196.12 606.002 196.72 603.586 196.72ZM591.922 207.52V170.08H595.09V189.592H595.474V207.52H591.922ZM603.226 193.432C605.034 193.432 606.538 192.976 607.738 192.064C608.938 191.152 609.834 189.912 610.426 188.344C611.034 186.76 611.338 184.984 611.338 183.016C611.338 181.064 611.042 179.304 610.45 177.736C609.858 176.168 608.954 174.928 607.738 174.016C606.538 173.104 605.01 172.648 603.154 172.648C601.346 172.648 599.842 173.088 598.642 173.968C597.458 174.848 596.57 176.072 595.978 177.64C595.386 179.192 595.09 180.984 595.09 183.016C595.09 185.016 595.386 186.808 595.978 188.392C596.57 189.96 597.466 191.192 598.666 192.088C599.866 192.984 601.386 193.432 603.226 193.432ZM627.768 196.72C625.816 196.72 624.176 196.368 622.848 195.664C621.536 194.96 620.552 194.024 619.896 192.856C619.24 191.688 618.912 190.416 618.912 189.04C618.912 187.632 619.192 186.432 619.752 185.44C620.328 184.432 621.104 183.608 622.08 182.968C623.072 182.328 624.216 181.84 625.512 181.504C626.824 181.184 628.272 180.904 629.856 180.664C631.456 180.408 633.016 180.192 634.536 180.016C636.072 179.824 637.416 179.64 638.568 179.464L637.32 180.232C637.368 177.672 636.872 175.776 635.832 174.544C634.792 173.312 632.984 172.696 630.408 172.696C628.632 172.696 627.128 173.096 625.896 173.896C624.68 174.696 623.824 175.96 623.328 177.688L619.896 176.68C620.488 174.36 621.68 172.56 623.472 171.28C625.264 170 627.592 169.36 630.456 169.36C632.824 169.36 634.832 169.808 636.48 170.704C638.144 171.584 639.32 172.864 640.008 174.544C640.328 175.296 640.536 176.136 640.632 177.064C640.728 177.992 640.776 178.936 640.776 179.896V196H637.632V189.496L638.544 189.88C637.664 192.104 636.296 193.8 634.44 194.968C632.584 196.136 630.36 196.72 627.768 196.72ZM628.176 193.672C629.824 193.672 631.264 193.376 632.496 192.784C633.728 192.192 634.72 191.384 635.472 190.36C636.224 189.32 636.712 188.152 636.936 186.856C637.128 186.024 637.232 185.112 637.248 184.12C637.264 183.112 637.272 182.36 637.272 181.864L638.616 182.56C637.416 182.72 636.112 182.88 634.704 183.04C633.312 183.2 631.936 183.384 630.576 183.592C629.232 183.8 628.016 184.048 626.928 184.336C626.192 184.544 625.48 184.84 624.792 185.224C624.104 185.592 623.536 186.088 623.088 186.712C622.656 187.336 622.44 188.112 622.44 189.04C622.44 189.792 622.624 190.52 622.992 191.224C623.376 191.928 623.984 192.512 624.816 192.976C625.664 193.44 626.784 193.672 628.176 193.672ZM665.744 196V182.776C665.744 181.336 665.608 180.016 665.336 178.816C665.064 177.6 664.624 176.544 664.016 175.648C663.424 174.736 662.648 174.032 661.688 173.536C660.744 173.04 659.592 172.792 658.232 172.792C656.984 172.792 655.88 173.008 654.92 173.44C653.976 173.872 653.176 174.496 652.52 175.312C651.88 176.112 651.392 177.088 651.056 178.24C650.72 179.392 650.552 180.704 650.552 182.176L648.056 181.624C648.056 178.968 648.52 176.736 649.448 174.928C650.376 173.12 651.656 171.752 653.288 170.824C654.92 169.896 656.792 169.432 658.904 169.432C660.456 169.432 661.808 169.672 662.96 170.152C664.128 170.632 665.112 171.28 665.912 172.096C666.728 172.912 667.384 173.848 667.88 174.904C668.376 175.944 668.736 177.056 668.96 178.24C669.184 179.408 669.296 180.576 669.296 181.744V196H665.744ZM647 196V170.08H650.192V176.464H650.552V196H647ZM678.283 207.52L683.299 193.912L683.371 197.944L672.019 170.08H675.763L685.075 193.384H683.539L692.131 170.08H695.731L681.811 207.52H678.283ZM715.028 196L707.108 170.056L710.636 170.08L716.78 190.216L722.948 170.08H726.164L732.332 190.216L738.524 170.08H742.028L734.108 196H731.036L724.556 175.36L718.1 196H715.028ZM756.383 196.72C753.855 196.72 751.663 196.16 749.807 195.04C747.967 193.92 746.535 192.344 745.511 190.312C744.487 188.28 743.975 185.896 743.975 183.16C743.975 180.328 744.479 177.88 745.487 175.816C746.495 173.752 747.911 172.16 749.735 171.04C751.575 169.92 753.743 169.36 756.239 169.36C758.799 169.36 760.983 169.952 762.791 171.136C764.599 172.304 765.967 173.984 766.895 176.176C767.823 178.368 768.247 180.984 768.167 184.024H764.567V182.776C764.503 179.416 763.775 176.88 762.383 175.168C761.007 173.456 758.991 172.6 756.335 172.6C753.551 172.6 751.415 173.504 749.927 175.312C748.455 177.12 747.719 179.696 747.719 183.04C747.719 186.304 748.455 188.84 749.927 190.648C751.415 192.44 753.519 193.336 756.239 193.336C758.095 193.336 759.711 192.912 761.087 192.064C762.479 191.2 763.575 189.96 764.375 188.344L767.663 189.616C766.639 191.872 765.127 193.624 763.127 194.872C761.143 196.104 758.895 196.72 756.383 196.72ZM746.471 184.024V181.072H766.271V184.024H746.471ZM785.133 196.72C782.749 196.72 780.733 196.12 779.085 194.92C777.437 193.704 776.189 192.064 775.341 190C774.493 187.92 774.069 185.592 774.069 183.016C774.069 180.392 774.493 178.056 775.341 176.008C776.205 173.944 777.469 172.32 779.133 171.136C780.797 169.952 782.845 169.36 785.277 169.36C787.645 169.36 789.677 169.96 791.373 171.16C793.069 172.36 794.365 173.992 795.261 176.056C796.173 178.12 796.629 180.44 796.629 183.016C796.629 185.608 796.173 187.936 795.261 190C794.349 192.064 793.037 193.704 791.325 194.92C789.613 196.12 787.549 196.72 785.133 196.72ZM773.469 196V161.44H777.021V176.488H776.637V196H773.469ZM784.773 193.432C786.581 193.432 788.085 192.976 789.285 192.064C790.485 191.152 791.381 189.912 791.973 188.344C792.581 186.76 792.885 184.984 792.885 183.016C792.885 181.064 792.589 179.304 791.997 177.736C791.405 176.168 790.501 174.928 789.285 174.016C788.085 173.104 786.557 172.648 784.701 172.648C782.893 172.648 781.389 173.088 780.189 173.968C779.005 174.848 778.117 176.072 777.525 177.64C776.933 179.192 776.637 180.984 776.637 183.016C776.637 185.016 776.933 186.808 777.525 188.392C778.117 189.96 779.013 191.192 780.213 192.088C781.413 192.984 782.933 193.432 784.773 193.432ZM811.337 196.696C808.297 196.696 805.793 196.04 803.825 194.728C801.873 193.416 800.673 191.592 800.225 189.256L803.825 188.656C804.209 190.128 805.081 191.304 806.441 192.184C807.817 193.048 809.513 193.48 811.529 193.48C813.497 193.48 815.049 193.072 816.185 192.256C817.321 191.424 817.889 190.296 817.889 188.872C817.889 188.072 817.705 187.424 817.337 186.928C816.985 186.416 816.257 185.944 815.153 185.512C814.049 185.08 812.401 184.568 810.209 183.976C807.857 183.336 806.017 182.696 804.689 182.056C803.361 181.416 802.417 180.68 801.857 179.848C801.297 179 801.017 177.968 801.017 176.752C801.017 175.28 801.433 173.992 802.265 172.888C803.097 171.768 804.249 170.904 805.721 170.296C807.193 169.672 808.905 169.36 810.857 169.36C812.809 169.36 814.553 169.68 816.089 170.32C817.641 170.944 818.889 171.824 819.833 172.96C820.777 174.096 821.337 175.416 821.513 176.92L817.913 177.568C817.673 176.048 816.913 174.848 815.633 173.968C814.369 173.072 812.761 172.608 810.809 172.576C808.969 172.528 807.473 172.88 806.321 173.632C805.169 174.368 804.593 175.352 804.593 176.584C804.593 177.272 804.801 177.864 805.217 178.36C805.633 178.84 806.385 179.296 807.473 179.728C808.577 180.16 810.145 180.632 812.177 181.144C814.561 181.752 816.433 182.392 817.793 183.064C819.153 183.736 820.121 184.528 820.697 185.44C821.273 186.352 821.561 187.48 821.561 188.824C821.561 191.272 820.649 193.2 818.825 194.608C817.017 196 814.521 196.696 811.337 196.696ZM827.363 165.16V161.2H830.891V165.16H827.363ZM827.363 196V170.08H830.891V196H827.363ZM852.199 196C850.743 196.304 849.303 196.424 847.879 196.36C846.471 196.296 845.207 195.992 844.087 195.448C842.983 194.904 842.143 194.056 841.567 192.904C841.103 191.944 840.847 190.976 840.799 190C840.767 189.008 840.751 187.88 840.751 186.616V162.88H844.255V186.472C844.255 187.56 844.263 188.472 844.279 189.208C844.311 189.928 844.479 190.568 844.783 191.128C845.359 192.2 846.271 192.84 847.519 193.048C848.783 193.256 850.343 193.208 852.199 192.904V196ZM835.207 173.104V170.08H852.199V173.104H835.207ZM867.336 196.72C864.808 196.72 862.616 196.16 860.76 195.04C858.92 193.92 857.488 192.344 856.464 190.312C855.44 188.28 854.928 185.896 854.928 183.16C854.928 180.328 855.432 177.88 856.44 175.816C857.448 173.752 858.864 172.16 860.688 171.04C862.528 169.92 864.696 169.36 867.192 169.36C869.752 169.36 871.936 169.952 873.744 171.136C875.552 172.304 876.92 173.984 877.848 176.176C878.776 178.368 879.2 180.984 879.12 184.024H875.52V182.776C875.456 179.416 874.728 176.88 873.336 175.168C871.96 173.456 869.944 172.6 867.288 172.6C864.504 172.6 862.368 173.504 860.88 175.312C859.408 177.12 858.672 179.696 858.672 183.04C858.672 186.304 859.408 188.84 860.88 190.648C862.368 192.44 864.472 193.336 867.192 193.336C869.048 193.336 870.664 192.912 872.04 192.064C873.432 191.2 874.528 189.96 875.328 188.344L878.616 189.616C877.592 191.872 876.08 193.624 874.08 194.872C872.096 196.104 869.848 196.72 867.336 196.72ZM857.424 184.024V181.072H877.224V184.024H857.424Z" fill="white"/>
<rect x="297" y="260" width="372" height="58" rx="29" fill="white" stroke="white" stroke-width="2"/>
<path d="M336.035 289.881L339.834 282.723H341.621L336.865 291.463V297H335.205V291.541L330.439 282.723H332.256L336.035 289.881ZM352.568 291.629C352.568 292.508 352.454 293.292 352.227 293.982C351.999 294.673 351.67 295.255 351.24 295.73C350.811 296.206 350.29 296.57 349.678 296.824C349.072 297.072 348.385 297.195 347.617 297.195C346.901 297.195 346.243 297.072 345.645 296.824C345.052 296.57 344.538 296.206 344.102 295.73C343.672 295.255 343.337 294.673 343.096 293.982C342.861 293.292 342.744 292.508 342.744 291.629C342.744 290.457 342.943 289.461 343.34 288.641C343.737 287.814 344.303 287.186 345.039 286.756C345.781 286.32 346.663 286.102 347.686 286.102C348.662 286.102 349.515 286.32 350.244 286.756C350.98 287.192 351.549 287.824 351.953 288.65C352.363 289.471 352.568 290.464 352.568 291.629ZM344.424 291.629C344.424 292.488 344.538 293.234 344.766 293.865C344.993 294.497 345.345 294.985 345.82 295.33C346.296 295.675 346.908 295.848 347.656 295.848C348.398 295.848 349.007 295.675 349.482 295.33C349.964 294.985 350.319 294.497 350.547 293.865C350.775 293.234 350.889 292.488 350.889 291.629C350.889 290.776 350.775 290.04 350.547 289.422C350.319 288.797 349.967 288.315 349.492 287.977C349.017 287.638 348.402 287.469 347.646 287.469C346.533 287.469 345.716 287.837 345.195 288.572C344.681 289.308 344.424 290.327 344.424 291.629ZM364.209 286.297V297H362.881L362.646 295.496H362.559C362.337 295.867 362.051 296.18 361.699 296.434C361.348 296.688 360.951 296.876 360.508 297C360.072 297.13 359.606 297.195 359.111 297.195C358.265 297.195 357.555 297.059 356.982 296.785C356.41 296.512 355.977 296.089 355.684 295.516C355.397 294.943 355.254 294.207 355.254 293.309V286.297H356.895V293.191C356.895 294.083 357.096 294.751 357.5 295.193C357.904 295.63 358.519 295.848 359.346 295.848C360.14 295.848 360.771 295.698 361.24 295.398C361.715 295.099 362.057 294.66 362.266 294.08C362.474 293.494 362.578 292.778 362.578 291.932V286.297H364.209ZM372.5 286.102C372.715 286.102 372.939 286.115 373.174 286.141C373.408 286.16 373.617 286.189 373.799 286.229L373.594 287.732C373.418 287.687 373.223 287.651 373.008 287.625C372.793 287.599 372.591 287.586 372.402 287.586C371.973 287.586 371.566 287.674 371.182 287.85C370.804 288.019 370.472 288.266 370.186 288.592C369.899 288.911 369.674 289.298 369.512 289.754C369.349 290.203 369.268 290.704 369.268 291.258V297H367.637V286.297H368.984L369.16 288.27H369.229C369.45 287.872 369.717 287.511 370.029 287.186C370.342 286.854 370.703 286.59 371.113 286.395C371.53 286.199 371.992 286.102 372.5 286.102ZM385.137 286.102C386.048 286.102 386.829 286.303 387.48 286.707C388.132 287.111 388.63 287.677 388.975 288.406C389.32 289.129 389.492 289.975 389.492 290.945V291.951H382.1C382.119 293.208 382.432 294.165 383.037 294.822C383.643 295.48 384.495 295.809 385.596 295.809C386.273 295.809 386.872 295.747 387.393 295.623C387.913 295.499 388.454 295.317 389.014 295.076V296.502C388.473 296.743 387.936 296.919 387.402 297.029C386.875 297.14 386.25 297.195 385.527 297.195C384.499 297.195 383.6 296.987 382.832 296.57C382.07 296.147 381.478 295.529 381.055 294.715C380.632 293.901 380.42 292.905 380.42 291.727C380.42 290.574 380.612 289.578 380.996 288.738C381.387 287.892 381.934 287.241 382.637 286.785C383.346 286.329 384.18 286.102 385.137 286.102ZM385.117 287.43C384.251 287.43 383.561 287.713 383.047 288.279C382.533 288.846 382.227 289.637 382.129 290.652H387.793C387.786 290.014 387.686 289.454 387.49 288.973C387.301 288.484 387.012 288.107 386.621 287.84C386.23 287.566 385.729 287.43 385.117 287.43ZM403.867 286.102C405.046 286.102 405.934 286.411 406.533 287.029C407.132 287.641 407.432 288.628 407.432 289.988V297H405.83V290.066C405.83 289.201 405.641 288.553 405.264 288.123C404.893 287.687 404.339 287.469 403.604 287.469C402.568 287.469 401.816 287.768 401.348 288.367C400.879 288.966 400.645 289.848 400.645 291.014V297H399.033V290.066C399.033 289.487 398.949 289.005 398.779 288.621C398.617 288.237 398.369 287.951 398.037 287.762C397.712 287.566 397.298 287.469 396.797 287.469C396.087 287.469 395.518 287.615 395.088 287.908C394.658 288.201 394.346 288.637 394.15 289.217C393.962 289.79 393.867 290.496 393.867 291.336V297H392.246V286.297H393.555L393.799 287.811H393.887C394.102 287.439 394.372 287.127 394.697 286.873C395.023 286.619 395.387 286.427 395.791 286.297C396.195 286.167 396.624 286.102 397.08 286.102C397.894 286.102 398.574 286.255 399.121 286.561C399.674 286.86 400.075 287.319 400.322 287.938H400.41C400.762 287.319 401.243 286.86 401.855 286.561C402.467 286.255 403.138 286.102 403.867 286.102ZM414.766 286.121C416.042 286.121 416.989 286.408 417.607 286.98C418.226 287.553 418.535 288.468 418.535 289.725V297H417.354L417.041 295.418H416.963C416.663 295.809 416.351 296.137 416.025 296.404C415.7 296.665 415.322 296.863 414.893 297C414.469 297.13 413.949 297.195 413.33 297.195C412.679 297.195 412.1 297.081 411.592 296.854C411.09 296.626 410.693 296.281 410.4 295.818C410.114 295.356 409.971 294.77 409.971 294.061C409.971 292.993 410.394 292.173 411.24 291.6C412.087 291.027 413.376 290.714 415.107 290.662L416.953 290.584V289.93C416.953 289.005 416.755 288.357 416.357 287.986C415.96 287.615 415.4 287.43 414.678 287.43C414.118 287.43 413.584 287.511 413.076 287.674C412.568 287.837 412.087 288.029 411.631 288.25L411.133 287.02C411.615 286.772 412.168 286.561 412.793 286.385C413.418 286.209 414.076 286.121 414.766 286.121ZM416.934 291.727L415.303 291.795C413.968 291.847 413.027 292.065 412.48 292.449C411.934 292.833 411.66 293.377 411.66 294.08C411.66 294.692 411.846 295.145 412.217 295.438C412.588 295.73 413.079 295.877 413.691 295.877C414.642 295.877 415.42 295.613 416.025 295.086C416.631 294.559 416.934 293.768 416.934 292.713V291.727ZM423.496 286.297V297H421.875V286.297H423.496ZM422.705 282.293C422.972 282.293 423.2 282.381 423.389 282.557C423.584 282.726 423.682 282.993 423.682 283.357C423.682 283.715 423.584 283.982 423.389 284.158C423.2 284.334 422.972 284.422 422.705 284.422C422.425 284.422 422.191 284.334 422.002 284.158C421.82 283.982 421.729 283.715 421.729 283.357C421.729 282.993 421.82 282.726 422.002 282.557C422.191 282.381 422.425 282.293 422.705 282.293ZM428.564 297H426.934V281.805H428.564V297ZM441.191 286.121C442.467 286.121 443.415 286.408 444.033 286.98C444.652 287.553 444.961 288.468 444.961 289.725V297H443.779L443.467 295.418H443.389C443.089 295.809 442.777 296.137 442.451 296.404C442.126 296.665 441.748 296.863 441.318 297C440.895 297.13 440.374 297.195 439.756 297.195C439.105 297.195 438.525 297.081 438.018 296.854C437.516 296.626 437.119 296.281 436.826 295.818C436.54 295.356 436.396 294.77 436.396 294.061C436.396 292.993 436.82 292.173 437.666 291.6C438.512 291.027 439.801 290.714 441.533 290.662L443.379 290.584V289.93C443.379 289.005 443.18 288.357 442.783 287.986C442.386 287.615 441.826 287.43 441.104 287.43C440.544 287.43 440.01 287.511 439.502 287.674C438.994 287.837 438.512 288.029 438.057 288.25L437.559 287.02C438.04 286.772 438.594 286.561 439.219 286.385C439.844 286.209 440.501 286.121 441.191 286.121ZM443.359 291.727L441.729 291.795C440.394 291.847 439.453 292.065 438.906 292.449C438.359 292.833 438.086 293.377 438.086 294.08C438.086 294.692 438.271 295.145 438.643 295.438C439.014 295.73 439.505 295.877 440.117 295.877C441.068 295.877 441.846 295.613 442.451 295.086C443.057 294.559 443.359 293.768 443.359 292.713V291.727ZM452.109 297.195C450.755 297.195 449.681 296.733 448.887 295.809C448.099 294.884 447.705 293.51 447.705 291.688C447.705 289.845 448.109 288.455 448.916 287.518C449.723 286.574 450.798 286.102 452.139 286.102C452.705 286.102 453.2 286.176 453.623 286.326C454.046 286.476 454.411 286.678 454.717 286.932C455.023 287.179 455.28 287.462 455.488 287.781H455.605C455.579 287.579 455.553 287.303 455.527 286.951C455.501 286.6 455.488 286.313 455.488 286.092V281.805H457.109V297H455.801L455.557 295.477H455.488C455.286 295.796 455.029 296.085 454.717 296.346C454.411 296.606 454.043 296.814 453.613 296.971C453.19 297.12 452.689 297.195 452.109 297.195ZM452.363 295.848C453.509 295.848 454.32 295.522 454.795 294.871C455.27 294.22 455.508 293.253 455.508 291.971V291.678C455.508 290.317 455.28 289.272 454.824 288.543C454.375 287.814 453.555 287.449 452.363 287.449C451.367 287.449 450.622 287.833 450.127 288.602C449.632 289.363 449.385 290.405 449.385 291.727C449.385 293.042 449.629 294.057 450.117 294.773C450.612 295.49 451.361 295.848 452.363 295.848ZM464.355 297.195C463.001 297.195 461.927 296.733 461.133 295.809C460.345 294.884 459.951 293.51 459.951 291.688C459.951 289.845 460.355 288.455 461.162 287.518C461.969 286.574 463.044 286.102 464.385 286.102C464.951 286.102 465.446 286.176 465.869 286.326C466.292 286.476 466.657 286.678 466.963 286.932C467.269 287.179 467.526 287.462 467.734 287.781H467.852C467.826 287.579 467.799 287.303 467.773 286.951C467.747 286.6 467.734 286.313 467.734 286.092V281.805H469.355V297H468.047L467.803 295.477H467.734C467.533 295.796 467.275 296.085 466.963 296.346C466.657 296.606 466.289 296.814 465.859 296.971C465.436 297.12 464.935 297.195 464.355 297.195ZM464.609 295.848C465.755 295.848 466.566 295.522 467.041 294.871C467.516 294.22 467.754 293.253 467.754 291.971V291.678C467.754 290.317 467.526 289.272 467.07 288.543C466.621 287.814 465.801 287.449 464.609 287.449C463.613 287.449 462.868 287.833 462.373 288.602C461.878 289.363 461.631 290.405 461.631 291.727C461.631 293.042 461.875 294.057 462.363 294.773C462.858 295.49 463.607 295.848 464.609 295.848ZM477.656 286.102C477.871 286.102 478.096 286.115 478.33 286.141C478.564 286.16 478.773 286.189 478.955 286.229L478.75 287.732C478.574 287.687 478.379 287.651 478.164 287.625C477.949 287.599 477.747 287.586 477.559 287.586C477.129 287.586 476.722 287.674 476.338 287.85C475.96 288.019 475.628 288.266 475.342 288.592C475.055 288.911 474.831 289.298 474.668 289.754C474.505 290.203 474.424 290.704 474.424 291.258V297H472.793V286.297H474.141L474.316 288.27H474.385C474.606 287.872 474.873 287.511 475.186 287.186C475.498 286.854 475.859 286.59 476.27 286.395C476.686 286.199 477.148 286.102 477.656 286.102ZM485.098 286.102C486.009 286.102 486.79 286.303 487.441 286.707C488.092 287.111 488.59 287.677 488.936 288.406C489.281 289.129 489.453 289.975 489.453 290.945V291.951H482.061C482.08 293.208 482.393 294.165 482.998 294.822C483.604 295.48 484.456 295.809 485.557 295.809C486.234 295.809 486.833 295.747 487.354 295.623C487.874 295.499 488.415 295.317 488.975 295.076V296.502C488.434 296.743 487.897 296.919 487.363 297.029C486.836 297.14 486.211 297.195 485.488 297.195C484.46 297.195 483.561 296.987 482.793 296.57C482.031 296.147 481.439 295.529 481.016 294.715C480.592 293.901 480.381 292.905 480.381 291.727C480.381 290.574 480.573 289.578 480.957 288.738C481.348 287.892 481.895 287.241 482.598 286.785C483.307 286.329 484.141 286.102 485.098 286.102ZM485.078 287.43C484.212 287.43 483.522 287.713 483.008 288.279C482.493 288.846 482.188 289.637 482.09 290.652H487.754C487.747 290.014 487.646 289.454 487.451 288.973C487.262 288.484 486.973 288.107 486.582 287.84C486.191 287.566 485.69 287.43 485.078 287.43ZM499.131 294.07C499.131 294.754 498.958 295.33 498.613 295.799C498.275 296.261 497.786 296.609 497.148 296.844C496.517 297.078 495.762 297.195 494.883 297.195C494.134 297.195 493.486 297.137 492.939 297.02C492.393 296.902 491.914 296.736 491.504 296.521V295.027C491.94 295.242 492.461 295.438 493.066 295.613C493.672 295.789 494.29 295.877 494.922 295.877C495.846 295.877 496.517 295.727 496.934 295.428C497.35 295.128 497.559 294.721 497.559 294.207C497.559 293.914 497.474 293.657 497.305 293.436C497.142 293.208 496.865 292.99 496.475 292.781C496.084 292.566 495.544 292.332 494.854 292.078C494.17 291.818 493.577 291.561 493.076 291.307C492.581 291.046 492.197 290.73 491.924 290.359C491.657 289.988 491.523 289.507 491.523 288.914C491.523 288.009 491.888 287.316 492.617 286.834C493.353 286.346 494.316 286.102 495.508 286.102C496.152 286.102 496.755 286.167 497.314 286.297C497.881 286.421 498.408 286.59 498.896 286.805L498.35 288.104C497.907 287.915 497.435 287.755 496.934 287.625C496.432 287.495 495.921 287.43 495.4 287.43C494.652 287.43 494.076 287.553 493.672 287.801C493.275 288.048 493.076 288.387 493.076 288.816C493.076 289.148 493.167 289.422 493.35 289.637C493.538 289.852 493.838 290.053 494.248 290.242C494.658 290.431 495.199 290.652 495.869 290.906C496.54 291.154 497.119 291.411 497.607 291.678C498.096 291.938 498.47 292.257 498.73 292.635C498.997 293.006 499.131 293.484 499.131 294.07ZM508.662 294.07C508.662 294.754 508.49 295.33 508.145 295.799C507.806 296.261 507.318 296.609 506.68 296.844C506.048 297.078 505.293 297.195 504.414 297.195C503.665 297.195 503.018 297.137 502.471 297.02C501.924 296.902 501.445 296.736 501.035 296.521V295.027C501.471 295.242 501.992 295.438 502.598 295.613C503.203 295.789 503.822 295.877 504.453 295.877C505.378 295.877 506.048 295.727 506.465 295.428C506.882 295.128 507.09 294.721 507.09 294.207C507.09 293.914 507.005 293.657 506.836 293.436C506.673 293.208 506.396 292.99 506.006 292.781C505.615 292.566 505.075 292.332 504.385 292.078C503.701 291.818 503.109 291.561 502.607 291.307C502.113 291.046 501.729 290.73 501.455 290.359C501.188 289.988 501.055 289.507 501.055 288.914C501.055 288.009 501.419 287.316 502.148 286.834C502.884 286.346 503.848 286.102 505.039 286.102C505.684 286.102 506.286 286.167 506.846 286.297C507.412 286.421 507.939 286.59 508.428 286.805L507.881 288.104C507.438 287.915 506.966 287.755 506.465 287.625C505.964 287.495 505.452 287.43 504.932 287.43C504.183 287.43 503.607 287.553 503.203 287.801C502.806 288.048 502.607 288.387 502.607 288.816C502.607 289.148 502.699 289.422 502.881 289.637C503.07 289.852 503.369 290.053 503.779 290.242C504.189 290.431 504.73 290.652 505.4 290.906C506.071 291.154 506.65 291.411 507.139 291.678C507.627 291.938 508.001 292.257 508.262 292.635C508.529 293.006 508.662 293.484 508.662 294.07Z" fill="black"/>
<path d="M692 289C692 272.431 705.431 259 722 259H872C888.569 259 902 272.431 902 289V289C902 305.569 888.569 319 872 319H722C705.431 319 692 305.569 692 289V289Z" fill="#65E4A3"/>
<path d="M758.225 293.035C758.225 293.882 758.02 294.617 757.609 295.242C757.199 295.867 756.6 296.349 755.812 296.688C755.031 297.026 754.081 297.195 752.961 297.195C752.466 297.195 751.981 297.163 751.506 297.098C751.037 297.033 750.585 296.938 750.148 296.814C749.719 296.684 749.309 296.525 748.918 296.336V293.523C749.595 293.823 750.298 294.093 751.027 294.334C751.757 294.575 752.479 294.695 753.195 294.695C753.69 294.695 754.087 294.63 754.387 294.5C754.693 294.37 754.914 294.191 755.051 293.963C755.188 293.735 755.256 293.475 755.256 293.182C755.256 292.824 755.135 292.518 754.895 292.264C754.654 292.01 754.322 291.772 753.898 291.551C753.482 291.329 753.01 291.092 752.482 290.838C752.15 290.682 751.789 290.493 751.398 290.271C751.008 290.044 750.637 289.767 750.285 289.441C749.934 289.116 749.644 288.722 749.416 288.26C749.195 287.791 749.084 287.231 749.084 286.58C749.084 285.727 749.279 284.998 749.67 284.393C750.061 283.787 750.617 283.325 751.34 283.006C752.069 282.68 752.928 282.518 753.918 282.518C754.66 282.518 755.367 282.605 756.037 282.781C756.714 282.951 757.421 283.198 758.156 283.523L757.18 285.877C756.522 285.61 755.933 285.405 755.412 285.262C754.891 285.112 754.361 285.037 753.82 285.037C753.443 285.037 753.12 285.099 752.854 285.223C752.587 285.34 752.385 285.509 752.248 285.73C752.111 285.945 752.043 286.196 752.043 286.482C752.043 286.821 752.141 287.107 752.336 287.342C752.538 287.57 752.837 287.791 753.234 288.006C753.638 288.221 754.139 288.471 754.738 288.758C755.467 289.103 756.089 289.464 756.604 289.842C757.124 290.213 757.525 290.652 757.805 291.16C758.085 291.661 758.225 292.286 758.225 293.035ZM765.178 294.822C765.503 294.822 765.819 294.79 766.125 294.725C766.438 294.66 766.747 294.578 767.053 294.48V296.697C766.734 296.84 766.337 296.958 765.861 297.049C765.393 297.146 764.878 297.195 764.318 297.195C763.667 297.195 763.081 297.091 762.561 296.883C762.046 296.668 761.639 296.3 761.34 295.779C761.047 295.252 760.9 294.52 760.9 293.582V288.318H759.475V287.059L761.115 286.062L761.975 283.758H763.879V286.082H766.936V288.318H763.879V293.582C763.879 293.999 763.996 294.311 764.23 294.52C764.471 294.721 764.787 294.822 765.178 294.822ZM773.742 285.857C775.207 285.857 776.33 286.176 777.111 286.814C777.893 287.452 778.283 288.423 778.283 289.725V297H776.203L775.627 295.516H775.549C775.236 295.906 774.917 296.225 774.592 296.473C774.266 296.72 773.892 296.902 773.469 297.02C773.046 297.137 772.531 297.195 771.926 297.195C771.281 297.195 770.702 297.072 770.188 296.824C769.68 296.577 769.279 296.199 768.986 295.691C768.693 295.177 768.547 294.526 768.547 293.738C768.547 292.579 768.954 291.727 769.768 291.18C770.581 290.626 771.802 290.32 773.43 290.262L775.324 290.203V289.725C775.324 289.152 775.174 288.732 774.875 288.465C774.576 288.198 774.159 288.064 773.625 288.064C773.098 288.064 772.58 288.139 772.072 288.289C771.564 288.439 771.057 288.628 770.549 288.855L769.562 286.844C770.142 286.538 770.79 286.297 771.506 286.121C772.229 285.945 772.974 285.857 773.742 285.857ZM775.324 291.941L774.172 291.98C773.208 292.007 772.538 292.179 772.16 292.498C771.789 292.817 771.604 293.237 771.604 293.758C771.604 294.214 771.737 294.539 772.004 294.734C772.271 294.923 772.619 295.018 773.049 295.018C773.687 295.018 774.224 294.829 774.66 294.451C775.103 294.074 775.324 293.536 775.324 292.84V291.941ZM787.453 285.877C787.603 285.877 787.775 285.887 787.971 285.906C788.173 285.919 788.335 285.939 788.459 285.965L788.234 288.758C788.137 288.725 787.997 288.702 787.814 288.689C787.639 288.67 787.486 288.66 787.355 288.66C786.971 288.66 786.597 288.709 786.232 288.807C785.874 288.904 785.552 289.064 785.266 289.285C784.979 289.5 784.751 289.786 784.582 290.145C784.419 290.496 784.338 290.929 784.338 291.443V297H781.359V286.082H783.615L784.055 287.918H784.201C784.416 287.547 784.683 287.208 785.002 286.902C785.327 286.59 785.695 286.342 786.105 286.16C786.522 285.971 786.971 285.877 787.453 285.877ZM795.041 294.822C795.367 294.822 795.682 294.79 795.988 294.725C796.301 294.66 796.61 294.578 796.916 294.48V296.697C796.597 296.84 796.2 296.958 795.725 297.049C795.256 297.146 794.742 297.195 794.182 297.195C793.531 297.195 792.945 297.091 792.424 296.883C791.91 296.668 791.503 296.3 791.203 295.779C790.91 295.252 790.764 294.52 790.764 293.582V288.318H789.338V287.059L790.979 286.062L791.838 283.758H793.742V286.082H796.799V288.318H793.742V293.582C793.742 293.999 793.859 294.311 794.094 294.52C794.335 294.721 794.65 294.822 795.041 294.822ZM810.529 285.877C811.695 285.877 812.632 286.196 813.342 286.834C814.051 287.465 814.406 288.481 814.406 289.881V297H811.428V290.623C811.428 289.842 811.285 289.253 810.998 288.855C810.718 288.458 810.275 288.26 809.67 288.26C808.758 288.26 808.137 288.569 807.805 289.188C807.473 289.806 807.307 290.698 807.307 291.863V297H804.328V286.082H806.604L807.004 287.479H807.17C807.404 287.101 807.694 286.795 808.039 286.561C808.391 286.326 808.778 286.154 809.201 286.043C809.631 285.932 810.074 285.877 810.529 285.877ZM827.395 291.521C827.395 292.433 827.271 293.24 827.023 293.943C826.783 294.646 826.428 295.242 825.959 295.73C825.497 296.212 824.937 296.577 824.279 296.824C823.628 297.072 822.893 297.195 822.072 297.195C821.304 297.195 820.598 297.072 819.953 296.824C819.315 296.577 818.758 296.212 818.283 295.73C817.814 295.242 817.45 294.646 817.189 293.943C816.936 293.24 816.809 292.433 816.809 291.521C816.809 290.311 817.023 289.285 817.453 288.445C817.883 287.605 818.495 286.967 819.289 286.531C820.083 286.095 821.031 285.877 822.131 285.877C823.153 285.877 824.058 286.095 824.846 286.531C825.64 286.967 826.262 287.605 826.711 288.445C827.167 289.285 827.395 290.311 827.395 291.521ZM819.846 291.521C819.846 292.238 819.924 292.84 820.08 293.328C820.236 293.816 820.48 294.184 820.812 294.432C821.145 294.679 821.577 294.803 822.111 294.803C822.639 294.803 823.065 294.679 823.391 294.432C823.723 294.184 823.964 293.816 824.113 293.328C824.27 292.84 824.348 292.238 824.348 291.521C824.348 290.799 824.27 290.2 824.113 289.725C823.964 289.243 823.723 288.882 823.391 288.641C823.059 288.4 822.626 288.279 822.092 288.279C821.304 288.279 820.731 288.549 820.373 289.09C820.021 289.63 819.846 290.441 819.846 291.521ZM838.83 297L837.99 293.182C837.945 292.954 837.87 292.618 837.766 292.176C837.661 291.727 837.548 291.248 837.424 290.74C837.307 290.226 837.196 289.751 837.092 289.314C836.994 288.878 836.923 288.559 836.877 288.357H836.789C836.743 288.559 836.672 288.878 836.574 289.314C836.477 289.751 836.366 290.226 836.242 290.74C836.125 291.255 836.014 291.74 835.91 292.195C835.806 292.645 835.728 292.986 835.676 293.221L834.797 297H831.594L828.488 286.082H831.457L832.717 290.916C832.801 291.255 832.883 291.658 832.961 292.127C833.039 292.589 833.107 293.038 833.166 293.475C833.231 293.904 833.28 294.246 833.312 294.5H833.391C833.404 294.311 833.43 294.061 833.469 293.748C833.514 293.436 833.563 293.113 833.615 292.781C833.674 292.443 833.726 292.14 833.771 291.873C833.824 291.6 833.863 291.414 833.889 291.316L835.236 286.082H838.518L839.797 291.316C839.842 291.505 839.901 291.805 839.973 292.215C840.051 292.625 840.119 293.048 840.178 293.484C840.236 293.914 840.269 294.253 840.275 294.5H840.354C840.38 294.279 840.425 293.95 840.49 293.514C840.555 293.077 840.63 292.622 840.715 292.146C840.806 291.665 840.897 291.255 840.988 290.916L842.297 286.082H845.217L842.072 297H838.83Z" fill="#0A2640"/>
<path d="M722 261H872V257H722V261ZM872 317H722V321H872V317ZM722 317C706.536 317 694 304.464 694 289H690C690 306.673 704.327 321 722 321V317ZM900 289C900 304.464 887.464 317 872 317V321C889.673 321 904 306.673 904 289H900ZM872 261C887.464 261 900 273.536 900 289H904C904 271.327 889.673 257 872 257V261ZM722 257C704.327 257 690 271.327 690 289H694C694 273.536 706.536 261 722 261V257Z" fill="#65E4A3"/>
</svg>
